# xmcd CD database file
#
# Track frame offsets:
#	182
#	12420
#	25480
#	38017
#	50785
#	63467
#	75657
#	88402
#	100697
#	113715
#	126092
#	138420
#	150937
#	163382
#	175225
#	188102
#	200357
#	212932
#	225800
#	239027
#	251762
#	264997
#	277222
#	289800
#
# Disc length: 4022 seconds
#
# Revision: 3
# Processed by: cddbd v1.5PL3 Copyright (c) Steve Scherf et al.
# Submitted via: CDex 1.51
#
DISCID=5f0fb418
DTITLE=Hank Williams - The Wonderful World Of Hank Williams - 24 Country Classics 1947-1950
DYEAR=1993
DGENRE=Country
TTITLE0=Never Again (Will I Knock On Your Door)
TTITLE1=Calling You
TTITLE2=Wealth Won't Save You
TTITLE3=When God Comes And Gathers His Jewels
TTITLE4=I Don't Care (If Tomorrow Never Comes)
TTITLE5=My Love For You (Has Turned To Hate)
TTITLE6=Pan American
TTITLE7=(Last Night) I Heard You Crying In Your Sleep
TTITLE8=On The Banks Of The Old Pontchartrain
TTITLE9=Fly Trouble
TTITLE10=My Sweet Love Ain't Around
TTITLE11=Rootie Tootie
TTITLE12=Honky Tonkin'
TTITLE13=I'll Be A Bachelor 'Til I Die
TTITLE14=I'm A Long Gone Daddy
TTITLE15=The Blues Come Around
TTITLE16=Six More Miles (To The Graveyard)
TTITLE17=I Can't Get You Off My Mind
TTITLE18=I've Just Told Mama Goodbye
TTITLE19=There'll Be No Teardrops Tonight
TTITLE20=Mind Your Own Business
TTITLE21=Lost Highway
TTITLE22=I'm So Lonesome I Could Cry
TTITLE23=Long Gone Lonesome Blues
EXTD=YEAR: 1993
EXTT0=
EXTT1=
EXTT2=
EXTT3=
EXTT4=
EXTT5=
EXTT6=
EXTT7=
EXTT8=
EXTT9=
EXTT10=
EXTT11=
EXTT12=
EXTT13=
EXTT14=
EXTT15=
EXTT16=
EXTT17=
EXTT18=
EXTT19=
EXTT20=
EXTT21=
EXTT22=
EXTT23=
PLAYORDER=
